<svg width="1440" height="1024" viewBox="0 0 1440 1024" fill="none" xmlns="http://www.w3.org/2000/svg">
<rect width="1440" height="1024" fill="white"/>
<g clip-path="url(#clip0_2_2)">
<path d="M920.827 50.4011C921.496 51.6043 922.966 53.9215 924.125 55.6595C926.932 59.8039 927.824 61.6756 929.16 65.9091C930.943 71.6132 931.389 76.1586 931.121 85.0713C930.854 94.1176 929.74 100.579 927.111 108.289C923.545 118.627 920.783 123.529 914.9 129.857C900.15 145.722 882.503 156.996 856.656 167.068C842.44 172.594 832.324 175.579 807.369 181.729C787.627 186.586 782.369 188.102 772.164 192.023C732.414 207.175 708.929 224.777 699.749 246.212C689.455 270.187 687.093 297.549 694 312.032C696.807 317.87 702.69 322.95 708.617 324.554L710.355 325L710.087 322.237C709.954 320.722 709.018 317.157 708.037 314.349C705.988 308.467 705.319 303.966 705.319 296.212C705.319 276.471 712.449 257.264 725.684 241.399C729.071 237.299 731.701 235.205 737.761 231.595C750.774 223.886 765.435 219.207 793.777 213.636C835.266 205.481 863.162 196.702 884.062 185.294C893.554 180.125 898.412 176.738 911.87 165.954C918.5 160.641 922.458 158.695 925.958 158.695C925.958 159.631 934.458 157.195 931.458 167.068C923.927 181.64 908.171 190.196 888.43 203.075C879.428 208.957 855.096 223.975 847.966 228.075C839.41 233.021 833.037 236.141 821.406 241.043C804.383 248.262 797.431 252.139 791.95 257.442C789.856 259.537 789.098 260.561 789.098 261.453C789.098 262.121 789.143 262.656 789.232 262.656C789.544 262.656 821.184 254.1 825.64 252.807C834.374 250.267 845.872 246.658 854.517 243.717C923.323 220.455 955.898 187.299 958.706 137.745C959.285 128.075 957.414 119.162 953.759 113.636C952.824 112.166 951.977 111.185 951.888 111.408C951.843 111.631 951.264 114.216 950.595 117.157C948.234 127.986 949.389 138.719 945.958 142.195C942.616 145.582 932.458 151.777 940.39 134.626C941.237 131.907 943.02 126.426 944.357 122.504C947.565 113.146 949.704 105.258 950.64 99.287C951.62 93.0481 951.353 84.893 949.971 79.7237C946.852 68.0481 937.627 57.4866 924.392 50.4902C922.164 49.287 920.159 48.3066 919.98 48.3066C919.758 48.3066 920.159 49.2424 920.827 50.4011Z" fill="black"/>
<path d="M681.524 286.594C681.212 286.906 670.472 288.6 664.412 289.313C661.248 289.669 650.508 290.694 640.57 291.541C605.187 294.616 592.843 296.71 579.385 301.924C574.528 303.84 572.389 305.177 569.848 307.985C566.684 311.416 565.927 313.199 565.927 316.942C565.927 321.22 567.487 324.295 573.28 331.425C575.775 334.5 578.672 338.154 579.742 339.536C583.574 344.66 588.52 355.801 593.111 369.75C600.642 392.7 614.857 433.653 622.745 455.088C635.045 488.6 639.679 505.712 641.907 525.944C643.734 542.833 645.445 546.398 649.5 551.389C653.199 555.935 662.958 560.792 673.698 563.466C699.767 569.883 738.743 568.101 768.779 558.386L775.107 556.381L777.201 551.389C780.989 542.299 782.816 536.015 784.287 526.791C784.51 525.454 784.599 525.409 787.273 525.142C789.1 524.963 791.016 524.384 793.244 523.315C797.968 520.953 801.533 516.942 806.524 508.297C814.59 494.348 815.704 493.19 828.538 484.589C850.463 469.928 870.918 450.543 881.034 434.812C888.699 422.958 892.531 411.996 893.066 400.275C893.779 385.258 888.922 370.908 880.098 361.951C877.469 359.277 875.597 357.896 872.968 356.514C863.342 351.523 855.143 351.612 850.374 356.737C846.809 360.57 845.294 363.956 841.774 376.211C839.635 383.564 837.273 389.09 835.668 390.561C834.733 391.363 834.733 391.363 835.045 389.135C835.223 387.887 836.471 382.406 837.763 376.88C839.1 371.354 840.481 365.026 840.882 362.842C841.863 357.227 842.264 347.914 841.595 346.666C841.239 345.997 840.125 345.418 837.852 344.794C835.758 344.17 834.287 343.457 833.574 342.7L832.549 341.496L834.02 340.249C835.535 339.001 838.832 337.263 846.988 333.52C854.519 329.999 856.97 326.791 856.881 320.284C856.881 317.789 856.613 316.496 855.9 315.115C849.661 303.127 816.818 291.675 782.504 289.536C774.528 289.045 762.54 289.001 759.688 289.447C755.766 290.07 750.285 296.577 749.483 301.479C749.305 302.504 749.305 303.35 749.439 303.35C749.528 303.35 751.221 303.662 753.137 304.019C765.793 306.381 788.922 308.43 813.699 309.366C817.62 309.5 818.645 308.208 819.269 308.341C822.255 309.277 821.319 308.787 819.269 308.341C811.471 305.846 804.34 304.509 786.738 302.236C773.458 300.543 764.545 299.117 764.055 298.671C763.922 298.493 764.991 298.493 766.462 298.627C767.932 298.76 772.567 298.983 776.711 299.117C796.007 299.785 810.624 301.969 820.784 305.801C825.152 307.45 831.034 310.57 833.307 312.486L834.643 313.644L833.084 314.981C824.26 322.646 810.668 327.815 792.264 330.489C782.772 331.871 777.291 332.316 764.902 332.717C754.073 333.074 745.25 332.94 708.529 331.915C699.706 331.648 687.496 331.425 681.39 331.425C654.92 331.425 632.46 329.732 618.734 326.701C608.173 324.34 600.285 321.309 596.854 318.19C594.492 316.051 593.779 314.58 593.779 311.862C593.779 306.247 596.052 305.935 599.127 311.104C600.285 313.02 602.38 314.491 604.029 314.491C604.652 314.491 608.663 313.288 612.941 311.773C625.553 307.406 634.554 306.202 664.323 304.91C673.102 304.509 681.925 304.019 683.93 303.796C685.936 303.529 687.807 303.35 688.119 303.35C688.521 303.35 688.61 302.682 688.431 300.988C687.273 289.09 686.248 286.416 682.772 286.416C682.193 286.416 681.613 286.505 681.524 286.594ZM583.173 314.268C593.734 325.454 605.945 331.291 621.631 332.762C624.84 333.074 627.513 333.386 627.558 333.43C627.87 333.742 624.26 334.589 620.74 335.035C612.05 336.193 595.294 333.653 587.763 330.088C584.421 328.484 581.435 325.454 579.563 321.666C577.87 318.368 576.667 313.511 577.068 311.505C577.513 309.01 578.761 309.589 583.173 314.268ZM591.506 334.545C610.178 341.363 637.005 346.22 667.754 348.359C699.216 350.498 733.752 350.498 777.201 347.646L799.127 344.794L816.373 339.536L803.36 346.666C790.5 351.5 762.228 353.306 743.957 354.687C734.287 355.445 695.918 355.445 683.797 354.687C665.08 353.529 637.139 350.721 614.1 347.646C598.993 345.685 590.704 341.452 588.03 334.411C587.763 333.742 587.629 333.208 587.674 333.208C587.763 333.208 589.501 333.832 591.506 334.545ZM869.492 377.459C872.879 378.172 875.33 379.865 877.38 382.807C880.365 387.174 880.989 389.58 880.945 397.156C880.9 405.266 880.143 408.609 876.578 415.873C872.389 424.518 869.046 428.662 853.36 444.616C847.478 450.632 841.64 456.871 840.437 458.52C838.832 460.748 837.852 461.684 836.693 462.04C834.198 462.842 827.736 466.14 824.349 468.324C820.071 471.086 813.743 476.479 810.535 480.088C805.544 485.748 798.369 495.685 794.537 502.236C793.868 503.395 793.244 504.286 793.155 504.197C792.888 503.93 797.21 489.447 799.127 484.054C800.107 481.336 802.023 476.345 803.36 472.914C805.722 466.897 807.059 463.734 816.373 441.719C821.052 430.578 825.775 418.279 828.405 410.391C829.296 407.673 830.232 405.4 830.499 405.4C831.301 405.4 835.401 403.172 836.827 401.969C838.922 400.231 842.13 396.309 845.695 391.14C854.073 379.019 860.134 375.498 869.492 377.459Z" fill="black"/>
<path d="M609.822 522.869C608.708 522.958 605.321 523.226 602.246 523.493C570.963 526.122 536.381 534.144 522.21 542.031C517.308 544.794 512.674 550.231 510.802 555.489C508.262 562.619 512.139 570.864 520.784 576.835C527.781 581.693 533.708 584.054 558.128 591.853C578.494 598.359 587.451 600.543 606.702 603.662C614.59 604.955 619.982 606.158 626.087 607.896C640.838 612.129 644.893 612.664 668.868 613.511C684.064 614.045 689.768 614.491 698.948 615.828C709.109 617.299 723.191 616.942 737.718 614.892C744.269 613.956 754.43 613.243 768.021 612.842C780.053 612.486 789.367 611.817 794.002 611.015C796.141 610.659 802.157 609.144 807.371 607.673C814.323 605.668 819.938 604.464 828.627 602.994C848.191 599.696 855.499 597.869 877.513 590.962C903.895 582.673 911.827 579.108 918.645 572.423C923.102 568.056 925.508 561.684 924.483 556.871C923.547 552.459 919.849 546.799 915.927 543.68C914.224 542.325 909.259 539.959 906 538.5C897.151 534.54 885.606 531.343 870.071 528.217C854.251 525.053 847.745 524.206 839.768 524.161C832.995 524.161 832.237 524.25 830.098 525.231C825.865 527.103 822.478 532.183 823.146 535.614C823.681 538.511 827.647 539.981 835.089 539.981C840.169 539.981 849.795 541.541 857.415 543.546C862.184 544.794 869.447 547.379 871.542 548.537C872.478 549.072 872.389 549.117 870.517 549.384C864.456 550.365 857.059 549.607 841.105 546.443C824.127 543.056 814.679 543.145 807.46 546.799L804.786 548.136L806.791 548.716C810.49 549.83 817.709 551.078 828.449 552.459C844.135 554.464 849.973 555.668 855.232 558.074L857.816 559.277L855.811 559.678C852.424 560.436 843.512 560.168 834.866 559.099C830.321 558.564 824.037 558.074 820.829 558.074C814.1 558.029 811.203 558.742 807.282 561.238L804.786 562.842L806.123 563.243C806.881 563.422 812.184 564.402 817.932 565.382C823.681 566.407 829.207 567.388 830.187 567.655C833.039 568.368 836.292 569.482 836.114 569.66C836.025 569.75 834.733 570.151 833.307 570.552C831.212 571.086 827.291 571.354 815.704 571.621C804.118 571.889 800.285 572.111 798.636 572.691C796.408 573.404 793.868 574.741 793.868 575.186C793.868 575.365 794.893 575.944 796.185 576.568C798.235 577.548 799.082 577.637 804.296 577.637C807.504 577.637 812.897 577.459 816.283 577.236C821.497 576.88 822.389 576.924 822.389 577.504C822.389 578.484 820.695 580.088 818.868 580.846C817.888 581.247 814.947 581.648 811.381 581.826C801.488 582.316 804.118 582.896 815.036 582.628C831.747 582.183 843.289 580.623 859.153 576.701C877.291 572.201 892.264 565.427 902.291 557.183C904.251 555.623 904.43 555.311 904.207 554.063C904.029 553.306 903.316 551.701 902.558 550.454C901.8 549.25 901.087 547.557 900.909 546.755L900.686 545.24L901.979 546.042C903.279 546.846 905.099 549.019 906 550C908.094 552.28 908.396 553.773 908.396 557.138C908.396 561.684 907.772 563.422 905.276 565.828C900.062 570.908 887.674 575.677 866.729 580.712C829.742 589.536 790.526 595.373 748.681 598.136C733.975 599.117 703.494 599.741 694.046 599.206C648.77 596.755 603.226 590.115 563.253 580.133C544.046 575.365 531.301 569.705 527.781 564.491C525.731 561.416 525.642 555.846 527.647 551.835C528.85 549.473 532.415 546.22 533.841 546.22C534.465 546.22 533.886 547.958 532.282 550.899C530.009 555.044 530.009 555.89 532.371 557.851C546.23 569.393 572.299 578.573 601.578 582.138C606.791 582.762 630.766 583.52 629.652 582.985C629.43 582.896 626.355 582.584 622.923 582.361C619.447 582.138 616.105 581.693 615.57 581.425C613.877 580.534 612.496 579.108 612.496 578.217C612.496 577.236 612.897 577.236 623.191 578.038C628.226 578.484 632.059 578.573 633.975 578.306C637.005 577.949 640.169 576.701 640.437 575.81C640.526 575.498 639.724 574.83 638.61 574.295C635.045 572.602 630.544 572.111 617.977 572.067C606.702 572.067 600.152 571.488 599.037 570.373C598.235 569.571 607.326 567.477 619.403 565.605C623.636 564.981 627.602 564.224 628.939 563.778C630.588 563.243 625.152 560.079 621.052 559.188C617.219 558.386 609.599 558.609 599.216 559.857C589.456 561.015 580.856 561.149 578.226 560.168C577.246 559.767 577.38 559.678 579.831 558.609C585.446 556.158 590.971 555.044 607.594 552.905C618.645 551.479 625.909 550.142 628.271 549.161L629.652 548.537L626.711 547.156C619.225 543.591 610.802 543.636 592.219 547.29C587.807 548.181 582.193 549.206 579.742 549.562C575.196 550.231 566.15 550.365 563.699 549.83L562.362 549.518L564.144 548.716C573.547 544.571 585.357 541.808 601.31 540.026C608.351 539.224 613.119 538.867 630.989 537.842L636.337 537.53L636.203 535.748C635.668 529.286 631.97 525.32 624.929 523.716C621.898 523.047 613.476 522.557 609.822 522.869Z" fill="black"/>
<path d="M676.92 461.248C674.744 461.248 672.616 460.88 670.536 460.144C668.488 459.44 666.616 458.352 664.92 456.88L669.192 451.696C670.216 452.56 671.384 453.248 672.696 453.76C674.008 454.272 675.416 454.528 676.92 454.528C679.16 454.528 681.192 453.936 683.016 452.752C684.84 451.536 686.296 449.968 687.384 448.048C688.504 446.096 689.064 444.016 689.064 441.808V392.8H695.784V441.808C695.784 445.264 694.936 448.464 693.24 451.408C691.544 454.352 689.272 456.736 686.424 458.56C683.576 460.352 680.408 461.248 676.92 461.248ZM738.395 461.248C733.851 461.248 729.579 460.352 725.579 458.56C721.579 456.736 718.059 454.24 715.019 451.072C712.011 447.872 709.643 444.16 707.915 439.936C706.219 435.712 705.371 431.2 705.371 426.4C705.371 421.6 706.219 417.088 707.915 412.864C709.643 408.64 712.011 404.944 715.019 401.776C718.059 398.576 721.579 396.08 725.579 394.288C729.579 392.464 733.851 391.552 738.395 391.552C743.835 391.552 748.843 392.816 753.419 395.344C757.995 397.872 761.787 401.232 764.795 405.424L758.843 408.64C756.475 405.472 753.467 402.96 749.819 401.104C746.203 399.216 742.395 398.272 738.395 398.272C734.715 398.272 731.275 399.024 728.075 400.528C724.907 402 722.123 404.032 719.723 406.624C717.323 409.216 715.451 412.208 714.107 415.6C712.763 418.992 712.091 422.592 712.091 426.4C712.091 430.272 712.763 433.904 714.107 437.296C715.483 440.688 717.371 443.68 719.771 446.272C722.203 448.864 725.003 450.896 728.171 452.368C731.371 453.808 734.779 454.528 738.395 454.528C742.555 454.528 746.411 453.584 749.963 451.696C753.547 449.776 756.507 447.28 758.843 444.208L764.795 447.424C761.787 451.616 757.995 454.976 753.419 457.504C748.843 460 743.835 461.248 738.395 461.248Z" fill="white"/>
</g>
<path d="M442.92 745.248C440.744 745.248 438.616 744.88 436.536 744.144C434.488 743.44 432.616 742.352 430.92 740.88L435.192 735.696C436.216 736.56 437.384 737.248 438.696 737.76C440.008 738.272 441.416 738.528 442.92 738.528C445.16 738.528 447.192 737.936 449.016 736.752C450.84 735.536 452.296 733.968 453.384 732.048C454.504 730.096 455.064 728.016 455.064 725.808V676.8H461.784V725.808C461.784 729.264 460.936 732.464 459.24 735.408C457.544 738.352 455.272 740.736 452.424 742.56C449.576 744.352 446.408 745.248 442.92 745.248ZM499.355 745.248C493.979 745.248 489.339 743.936 485.435 741.312C481.531 738.688 478.523 735.168 476.411 730.752C474.331 726.304 473.291 721.376 473.291 715.968V676.8H480.011V715.968C480.011 720.064 480.763 723.824 482.267 727.248C483.771 730.672 485.963 733.408 488.843 735.456C491.723 737.504 495.227 738.528 499.355 738.528C503.579 738.528 507.115 737.504 509.963 735.456C512.843 733.376 515.019 730.624 516.491 727.2C517.963 723.776 518.699 720.032 518.699 715.968V676.8H525.419V715.968C525.419 720.032 524.811 723.84 523.595 727.392C522.411 730.912 520.683 734.016 518.411 736.704C516.171 739.392 513.435 741.488 510.203 742.992C507.003 744.496 503.387 745.248 499.355 745.248ZM560.42 745.248C556.836 745.248 553.364 744.688 550.004 743.568C546.676 742.448 543.764 740.848 541.268 738.768C538.772 736.688 537.012 734.208 535.988 731.328L542.276 728.976C542.98 730.96 544.26 732.672 546.116 734.112C548.004 735.52 550.196 736.608 552.692 737.376C555.22 738.144 557.796 738.528 560.42 738.528C563.492 738.528 566.356 738.016 569.012 736.992C571.668 735.968 573.812 734.544 575.444 732.72C577.076 730.864 577.892 728.688 577.892 726.192C577.892 723.664 577.044 721.584 575.348 719.952C573.652 718.32 571.46 717.04 568.772 716.112C566.116 715.152 563.332 714.416 560.42 713.904C555.844 713.104 551.732 712.016 548.084 710.64C544.468 709.264 541.604 707.328 539.492 704.832C537.38 702.304 536.324 698.976 536.324 694.848C536.324 690.976 537.444 687.616 539.684 684.768C541.924 681.92 544.868 679.712 548.516 678.144C552.196 676.576 556.164 675.792 560.42 675.792C563.908 675.792 567.316 676.336 570.644 677.424C573.972 678.512 576.9 680.096 579.427 682.176C581.988 684.256 583.828 686.8 584.948 689.808L578.564 692.112C577.86 690.096 576.564 688.384 574.676 686.976C572.82 685.536 570.644 684.448 568.148 683.712C565.652 682.944 563.076 682.56 560.42 682.56C557.38 682.528 554.532 683.04 551.876 684.096C549.252 685.12 547.124 686.56 545.492 688.416C543.86 690.24 543.044 692.384 543.044 694.848C543.044 697.728 543.796 699.952 545.299 701.52C546.836 703.056 548.916 704.208 551.54 704.976C554.164 705.744 557.124 706.432 560.42 707.04C564.708 707.776 568.692 708.928 572.372 710.496C576.052 712.032 579.012 714.096 581.252 716.688C583.492 719.248 584.612 722.416 584.612 726.192C584.612 730.032 583.492 733.392 581.252 736.272C579.012 739.12 576.052 741.328 572.372 742.896C568.724 744.464 564.74 745.248 560.42 745.248ZM643.842 676.8V683.52H620.802V744H614.082V683.52H591.09V676.8H643.842ZM707.645 745.248C703.101 745.248 698.829 744.352 694.829 742.56C690.829 740.736 687.309 738.24 684.269 735.072C681.261 731.872 678.893 728.16 677.165 723.936C675.469 719.712 674.621 715.2 674.621 710.4C674.621 705.6 675.469 701.088 677.165 696.864C678.893 692.64 681.261 688.944 684.269 685.776C687.309 682.576 690.829 680.08 694.829 678.288C698.829 676.464 703.101 675.552 707.645 675.552C713.085 675.552 718.093 676.816 722.669 679.344C727.245 681.872 731.037 685.232 734.045 689.424L728.093 692.64C725.725 689.472 722.717 686.96 719.069 685.104C715.453 683.216 711.645 682.272 707.645 682.272C703.965 682.272 700.525 683.024 697.325 684.528C694.157 686 691.373 688.032 688.973 690.624C686.573 693.216 684.701 696.208 683.357 699.6C682.013 702.992 681.341 706.592 681.341 710.4C681.341 714.272 682.013 717.904 683.357 721.296C684.733 724.688 686.621 727.68 689.021 730.272C691.453 732.864 694.253 734.896 697.421 736.368C700.621 737.808 704.029 738.528 707.645 738.528C711.805 738.528 715.661 737.584 719.213 735.696C722.797 733.776 725.757 731.28 728.093 728.208L734.045 731.424C731.037 735.616 727.245 738.976 722.669 741.504C718.093 744 713.085 745.248 707.645 745.248ZM774.96 745.248C770.416 745.248 766.144 744.352 762.144 742.56C758.144 740.736 754.624 738.224 751.584 735.024C748.544 731.824 746.16 728.128 744.432 723.936C742.704 719.712 741.84 715.2 741.84 710.4C741.84 705.6 742.704 701.104 744.432 696.912C746.16 692.688 748.544 688.976 751.584 685.776C754.624 682.576 758.144 680.08 762.144 678.288C766.144 676.464 770.416 675.552 774.96 675.552C779.536 675.552 783.824 676.464 787.824 678.288C791.824 680.08 795.344 682.576 798.384 685.776C801.424 688.976 803.792 692.688 805.488 696.912C807.216 701.104 808.08 705.6 808.08 710.4C808.08 715.2 807.216 719.712 805.488 723.936C803.792 728.128 801.424 731.824 798.384 735.024C795.344 738.224 791.824 740.736 787.824 742.56C783.824 744.352 779.536 745.248 774.96 745.248ZM774.96 738.528C778.64 738.528 782.064 737.792 785.232 736.32C788.432 734.816 791.232 732.768 793.632 730.176C796.064 727.584 797.952 724.592 799.296 721.2C800.672 717.808 801.36 714.208 801.36 710.4C801.36 706.56 800.672 702.944 799.296 699.552C797.92 696.128 796.016 693.136 793.584 690.576C791.184 687.984 788.384 685.952 785.184 684.48C782.016 683.008 778.608 682.272 774.96 682.272C771.28 682.272 767.84 683.024 764.64 684.528C761.472 686 758.672 688.032 756.24 690.624C753.84 693.216 751.952 696.208 750.576 699.6C749.232 702.992 748.56 706.592 748.56 710.4C748.56 714.272 749.248 717.904 750.624 721.296C752 724.688 753.888 727.68 756.288 730.272C758.72 732.864 761.52 734.896 764.688 736.368C767.888 737.808 771.312 738.528 774.96 738.528ZM817.823 744V676.8H857.135V683.52H824.543V704.64H852.527V711.36H824.543V744H817.823ZM864.51 744V676.8H903.822V683.52H871.23V704.64H899.214V711.36H871.23V744H864.51ZM911.198 744V676.8H952.094V683.52H917.918V704.64H946.19V711.36H917.918V737.28H952.094V744H911.198ZM963.323 744V676.8H1004.22V683.52H970.043V704.64H998.315V711.36H970.043V737.28H1004.22V744H963.323Z" fill="black"/>
<defs>
<clipPath id="clip0_2_2">
<rect width="500" height="569.853" fill="white" transform="translate(510 47)"/>
</clipPath>
</defs>
</svg>
